<svg width="61" height="70" viewBox="0 0 61 70" fill="none" xmlns="http://www.w3.org/2000/svg">
<path fill-rule="evenodd" clip-rule="evenodd" d="M13.5765 14.514C14.5889 13.4921 16.2917 13.4921 17.3042 14.514L18.2246 15.4429L19.4672 12.2844C19.5592 12.0522 19.6052 11.8199 19.6052 11.5877C19.5592 11.309 19.4672 10.9838 19.2371 10.7516L15.0491 6.52473L11.4595 2.90171C10.8152 2.25142 9.66467 2.43722 9.29651 3.3662L7.36362 8.24334L2.66948 10.1942C2.48539 10.2406 2.30131 10.38 2.11722 10.5193C1.61099 11.0303 1.61099 11.8664 2.11722 12.4238L9.84876 20.2272C10.0789 20.4594 10.355 20.5988 10.6771 20.5988C10.9072 20.5988 11.0913 20.5988 11.2754 20.5059L14.4509 19.2053L13.5304 18.2763C12.564 17.2544 12.564 15.5823 13.5765 14.514Z" fill="#F3CA61"/>
<path opacity="0.7" fill-rule="evenodd" clip-rule="evenodd" d="M17.3035 14.514C16.291 13.4921 14.5882 13.4921 13.5758 14.514C12.5633 15.5358 12.5633 17.2545 13.5758 18.2763L28.5326 33.4187C29.5451 34.4406 31.2478 34.4406 32.2603 33.4187C33.2728 32.3968 33.2728 30.6782 32.2603 29.6563L17.3035 14.514Z" fill="#3561D1"/>
<path fill-rule="evenodd" clip-rule="evenodd" d="M19.6052 11.6341C22.8267 9.86904 26.5084 8.84716 30.4201 8.84716C42.8458 8.84716 52.9244 19.0195 52.9244 31.5607C52.9244 44.1019 42.8458 54.2743 30.4201 54.2743C17.9945 54.2743 7.91585 44.1019 7.91585 31.5607C7.91585 27.6126 8.92831 23.8966 10.6771 20.6452C10.355 20.5988 10.0788 20.5059 9.84873 20.2736L5.66082 16.0468C2.80751 20.6917 1.28882 26.0333 1.28882 31.5607C1.28882 41.4543 6.16705 50.2332 13.6225 55.5748C15.0491 56.5967 16.5678 57.4792 18.1785 58.2224C21.9063 59.941 26.0481 60.9165 30.4201 60.9165C34.7921 60.9165 38.934 59.941 42.6617 58.2224C44.2725 57.4792 45.7912 56.5967 47.2178 55.5748C54.6732 50.2332 59.5515 41.5008 59.5515 31.5607C59.5515 15.35 46.5275 2.20496 30.4662 2.20496C25.0357 2.20496 19.6972 3.73777 15.0951 6.61761L19.2831 10.8445C19.4671 11.0303 19.5592 11.309 19.6052 11.6341Z" fill="white"/>
<path fill-rule="evenodd" clip-rule="evenodd" d="M30.4197 8.84717C26.5079 8.84717 22.8262 9.86905 19.6048 11.6341C19.6508 11.8664 19.6048 12.145 19.4667 12.3308L18.2241 15.4429L21.2155 18.4621C23.7927 16.6041 26.9681 15.4894 30.4197 15.4894C39.2097 15.4894 46.297 22.6425 46.297 31.5143C46.297 40.386 39.2097 47.5392 30.4197 47.5392C21.6297 47.5392 14.5424 40.386 14.5424 31.5143C14.5424 28.0306 15.6469 24.8256 17.4878 22.2245L14.4964 19.2053L11.321 20.5059C11.1369 20.5988 10.9068 20.5988 10.7227 20.5988C8.97389 23.8502 7.96143 27.5661 7.96143 31.5143C7.96143 44.0555 18.04 54.2278 30.4657 54.2278C42.8914 54.2278 52.97 44.0555 52.97 31.5143C52.97 18.973 42.8454 8.84717 30.4197 8.84717Z" fill="#ED7960"/>
<path fill-rule="evenodd" clip-rule="evenodd" d="M30.4195 15.4894C26.9679 15.4894 23.7925 16.6042 21.2153 18.4621L26.0015 23.2928C27.2901 22.5961 28.8088 22.178 30.4195 22.178C35.5278 22.178 39.6697 26.3584 39.6697 31.5143C39.6697 36.6701 35.5278 40.8505 30.4195 40.8505C25.3112 40.8505 21.1693 36.6701 21.1693 31.5143C21.1693 29.8886 21.5835 28.4022 22.2738 27.0552L17.4876 22.2245C15.6467 24.8256 14.5422 28.0306 14.5422 31.5143C14.5422 40.386 21.6295 47.5392 30.4195 47.5392C39.2095 47.5392 46.2968 40.386 46.2968 31.5143C46.2968 22.689 39.1635 15.4894 30.4195 15.4894Z" fill="white"/>
<path opacity="0.7" fill-rule="evenodd" clip-rule="evenodd" d="M18.1786 58.1759C16.5679 57.4327 15.0492 56.5502 13.6225 55.5283L8.88234 63.8427C8.14601 65.0968 8.56019 66.7225 9.84878 67.4657C11.0914 68.2089 12.7481 67.7909 13.4384 66.4903L18.1786 58.1759Z" fill="#3561D1"/>
<path opacity="0.7" fill-rule="evenodd" clip-rule="evenodd" d="M42.6155 58.1759L47.3556 66.4903C48.092 67.7444 49.7027 68.2089 50.9453 67.4657C52.1879 66.7225 52.6481 65.0968 51.9117 63.8427L47.2176 55.5283C45.7449 56.5502 44.2262 57.4327 42.6155 58.1759Z" fill="#3561D1"/>
<path d="M48.9204 55.8999C49.9789 55.1103 50.9453 54.2278 51.9117 53.2523C57.6644 47.4462 60.8398 39.7357 60.8398 31.5607C60.8398 23.3857 57.6644 15.6287 51.9117 9.86901C46.1591 4.06289 38.5196 0.85791 30.4199 0.85791C25.0815 0.85791 19.8811 2.25138 15.279 4.94542L12.4257 2.06558C11.7814 1.4153 10.907 1.18305 10.0326 1.3224C9.15819 1.5082 8.42185 2.11203 8.0997 2.94811L6.39692 7.26787L2.20901 8.94003C1.84084 9.07938 1.47267 9.31162 1.19655 9.59032C0.184083 10.6122 0.184083 12.3308 1.19655 13.3527L4.04985 16.2325C1.38063 20.8774 0 26.1726 0 31.5142C0 39.7357 3.17545 47.4462 8.92808 53.2059C9.89452 54.1813 10.861 55.0639 11.9195 55.8535L7.73154 63.146C7.17928 64.075 7.04122 65.1433 7.31735 66.1652C7.59347 67.187 8.23777 68.0696 9.15819 68.5805C9.80248 68.9521 10.4468 69.1379 11.1371 69.1379C12.5177 69.1379 13.8523 68.4412 14.5887 67.1406L18.7306 59.8481C22.3662 61.3809 26.324 62.1706 30.4199 62.1706C34.5158 62.1706 38.4276 61.3809 42.1093 59.8481L46.2511 67.1406C46.8034 68.0696 47.6318 68.7199 48.6442 68.9986C48.9664 69.0915 49.3346 69.1379 49.6567 69.1379C50.347 69.1379 51.0373 68.9521 51.6356 68.5805C52.556 68.0231 53.2003 67.187 53.4765 66.1652C53.7526 65.1433 53.6145 64.075 53.0623 63.146L48.9204 55.8999ZM3.12943 11.4483L7.8696 9.54387C8.19175 9.40452 8.46787 9.12583 8.60594 8.80068L10.5388 3.92354L18.2704 11.727C18.2704 11.7734 18.2243 11.7734 18.2243 11.8199L17.7181 13.1204C16.5216 12.2844 15.0029 12.145 13.7143 12.7953L11.4592 10.5193C10.953 10.0084 10.1246 10.0084 9.57238 10.5193C9.06615 11.0302 9.06615 11.8663 9.57238 12.4237L11.8274 14.6997C11.2291 16.0003 11.3212 17.5331 12.1496 18.7408L10.7689 19.2982L3.03739 11.4483C3.08341 11.4483 3.12943 11.4483 3.12943 11.4483ZM17.7181 24.3611L20.6635 27.3338C20.1112 28.6344 19.8351 30.0743 19.8351 31.5142C19.8351 37.4133 24.5752 42.1975 30.4199 42.1975C36.2646 42.1975 41.0048 37.4133 41.0048 31.5142C41.0048 25.6152 36.2646 20.831 30.4199 20.831C28.9933 20.831 27.5666 21.1097 26.278 21.667L23.3327 18.6943C25.4957 17.4866 27.9348 16.8364 30.4199 16.8364C38.4276 16.8364 44.9626 23.4321 44.9626 31.5142C44.9626 39.5964 38.4276 46.1921 30.4199 46.1921C22.4122 46.1921 15.8773 39.5964 15.8773 31.5142C15.8773 29.006 16.4755 26.5442 17.7181 24.3611ZM33.2272 28.6808L28.349 23.8037C29.0393 23.6179 29.7296 23.525 30.4199 23.525C34.7919 23.525 38.3355 27.1016 38.3355 31.5142C38.3355 35.9269 34.7919 39.5035 30.4199 39.5035C26.0479 39.5035 22.5043 35.9269 22.5043 31.5142C22.5043 30.8175 22.5963 30.1208 22.7804 29.424L27.6126 34.3476C28.395 35.1373 29.4074 35.5088 30.4199 35.5088C31.4324 35.5088 32.4448 35.1373 33.2272 34.3476C33.9635 33.6044 34.3777 32.5826 34.3777 31.5142C34.3777 30.4459 33.9635 29.424 33.2272 28.6808ZM31.3403 30.5853C31.5704 30.8175 31.7085 31.1891 31.7085 31.5142C31.7085 31.8394 31.5704 32.211 31.3403 32.4432C31.1102 32.6755 30.7421 32.8148 30.4199 32.8148C30.0517 32.8148 29.7296 32.6755 29.4995 32.4432L14.4966 17.3473C13.9904 16.8364 13.9904 16.0003 14.4966 15.4429C15.0029 14.9319 15.8312 14.9319 16.3835 15.4429L31.3403 30.5853ZM12.2876 65.84C12.1035 66.1652 11.8274 66.351 11.5053 66.4439C11.1831 66.5368 10.8149 66.4903 10.4928 66.3045C10.1707 66.1187 9.98657 65.84 9.89453 65.5149C9.80248 65.1897 9.8485 64.8181 10.0326 64.493L14.0824 57.4328C14.8188 57.8972 15.6011 58.3617 16.3375 58.7798L12.2876 65.84ZM2.6232 31.5142C2.6232 26.8693 3.77373 22.2709 5.98274 18.1834L8.92808 21.1561C8.32981 22.4567 7.82358 23.8037 7.45541 25.1972C7.27132 25.8939 7.68551 26.6371 8.37583 26.8229C8.51389 26.8693 8.60594 26.8693 8.744 26.8693C9.34227 26.8693 9.8485 26.4977 10.0326 25.8939C10.4008 24.5004 10.907 23.1534 11.5973 21.8528C11.6893 21.8064 11.7814 21.8064 11.8734 21.7599L14.2665 20.7845L15.8773 22.4102C14.2205 25.1507 13.3001 28.2628 13.3001 31.5142C13.3001 41.0827 21.0316 48.8862 30.512 48.8862C39.9923 48.8862 47.7238 41.0827 47.7238 31.5142C47.7238 21.9457 39.9923 14.1423 30.512 14.1423C27.2905 14.1423 24.2071 15.0248 21.4918 16.7435L19.8811 15.1177L20.8015 12.8417C20.8475 12.7024 20.8936 12.5631 20.9396 12.4702C23.8849 10.9838 27.1984 10.1477 30.512 10.1477C42.2013 10.1477 51.6816 19.7162 51.6816 31.5142C51.6816 43.3123 42.2013 52.8808 30.512 52.8808C20.9856 52.8808 12.5637 46.4244 10.0786 37.1346C9.89452 36.4378 9.15819 36.0198 8.46787 36.2056C7.77756 36.3914 7.36337 37.1346 7.54745 37.8313C10.3547 48.2823 19.789 55.5748 30.512 55.5748C43.628 55.5748 54.3048 44.7986 54.3048 31.5607C54.3048 18.3227 43.628 7.54656 30.512 7.54656C26.9683 7.54656 23.4247 8.33619 20.2493 9.86901L17.3039 6.89628C21.3538 4.66673 25.9098 3.5055 30.512 3.5055C45.837 3.5055 58.3087 16.0932 58.3087 31.5607C58.3087 47.0282 45.837 59.6159 30.512 59.6159C15.1869 59.6159 2.6232 46.9817 2.6232 31.5142ZM50.9453 65.5149C50.8533 65.84 50.6232 66.1652 50.347 66.3045C50.0249 66.4903 49.7027 66.5368 49.3346 66.4439C49.0124 66.351 48.6903 66.1187 48.5522 65.84L44.5024 58.7798C45.2847 58.3617 46.021 57.9437 46.8034 57.4328L50.8533 64.493C50.9913 64.8181 51.0373 65.1897 50.9453 65.5149Z" fill="#2C2C2C"/>
<path d="M9.25003 31.5143C9.25003 30.7711 8.65176 30.1672 7.91542 30.1672C7.17908 30.1672 6.58081 30.7711 6.58081 31.5143C6.58081 32.2574 7.17908 32.8613 7.91542 32.8613C8.65176 32.8613 9.25003 32.2574 9.25003 31.5143Z" fill="#2C2C2C"/>
</svg>
