<svg width="70" height="52" viewBox="0 0 70 52" fill="none" xmlns="http://www.w3.org/2000/svg">
<path opacity="0.7" d="M2.8584 49.3827H7.50423V29.5714H2.8584V49.3827Z" fill="#EB5433"/>
<path d="M37.9067 40.4149C38.7455 40.4135 39.4792 39.8418 39.6978 39.0196L37.9067 40.4149ZM37.9067 40.4149C37.7429 40.4163 37.5804 40.3951 37.4226 40.3527L37.9067 40.4149ZM15.8661 45.0896H15.8666H31.1231C31.9966 45.0883 32.8657 44.9719 33.7097 44.7432L15.8661 45.0896ZM15.8661 45.0896C13.7093 45.0946 11.6092 44.3841 9.886 43.0654L9.88548 43.065M15.8661 45.0896L9.88548 43.065M9.88548 43.065L9.61249 42.8572V35.5577L9.88564 35.3495L9.886 35.3492M9.88548 43.065L9.886 35.3492M9.886 35.3492C11.6092 34.0305 13.7093 33.3196 15.866 33.3255H15.8666M9.886 35.3492L15.8666 33.3255M15.8666 33.3255H24.1829H24.1831M15.8666 33.3255H24.1831M24.1831 33.3255C24.7283 33.325 25.2719 33.3967 25.8 33.5383L24.1831 33.3255ZM57.2381 36.6439L57.2376 36.642C56.842 35.1781 55.6695 34.0688 54.2124 33.7644V12.5708H55.8208C56.4755 12.5708 56.9999 12.0328 56.9999 11.3774V1.9434C56.9999 1.28739 56.4754 0.75 55.8208 0.75H14.9375C14.2828 0.75 13.7583 1.28739 13.7583 1.9434V11.3774C13.7583 12.0328 14.2827 12.5708 14.9375 12.5708H16.5458V30.9387H15.8672C13.6639 30.9334 11.503 31.533 9.61249 32.6697V28.3585C9.61249 27.7025 9.08801 27.1651 8.43332 27.1651H1.92917C1.27448 27.1651 0.75 27.7025 0.75 28.3585V50.0566C0.75 50.7121 1.2744 51.25 1.92917 51.25H8.43332C9.08809 51.25 9.61249 50.7121 9.61249 50.0566V45.7456C11.5033 46.8816 13.6638 47.4813 15.8672 47.4764H31.1235H31.1239C32.203 47.4745 33.2769 47.3306 34.3193 47.0485L34.3196 47.0485L54.4368 41.577L54.4379 41.5767C56.552 40.9917 57.7992 38.7867 57.2381 36.6439ZM38.9296 34.6399L38.9283 34.6395L24.1829 31.1887V30.9387H24.1825H18.9041V12.5708H51.8541V33.9444L41.4613 36.774C40.962 35.7298 40.0416 34.9493 38.9296 34.6399ZM53.8229 39.2718L33.7099 44.7432L37.9085 42.3017L37.9086 42.5517C37.9087 42.5517 37.9087 42.5517 37.9088 42.5517C39.6944 42.5506 41.2556 41.3381 41.7259 39.5951C41.766 39.4482 41.7966 39.2991 41.818 39.1488L52.9793 36.11C52.9798 36.1099 52.9804 36.1097 52.981 36.1096C53.0583 36.0898 53.1351 36.0714 53.2049 36.0595C54.0007 35.9575 54.7525 36.4686 54.96 37.2628L54.9601 37.2629C54.9963 37.4013 55.0144 37.5438 55.0132 37.6863L55.0132 37.6887C55.0144 38.4323 54.5241 39.0797 53.8229 39.2718ZM28.1229 39.425C28.2364 39.8402 28.5634 40.1638 28.9808 40.2663L25.8008 33.5385L38.3139 36.9443C38.3142 36.9443 38.3145 36.9444 38.3148 36.9445C38.9538 37.1236 39.4244 37.6811 39.4979 38.3553L39.4998 38.3732L39.5043 38.3906C39.51 38.4128 39.5164 38.4352 39.5236 38.4575C39.5186 38.4827 39.5145 38.508 39.5112 38.5337L39.509 38.5504L39.5091 38.5673C39.5099 38.6976 39.4925 38.8271 39.4573 38.9515L39.4573 38.9515L39.4562 38.9553C39.266 39.6705 38.6296 40.1637 37.9062 40.1649L37.9045 40.1649C37.764 40.1661 37.6242 40.1479 37.4879 40.1114C37.4877 40.1113 37.4875 40.1113 37.4874 40.1113L29.5935 37.9621C29.1818 37.8393 28.7374 37.9526 28.4322 38.2566L28.432 38.2567C28.1272 38.561 28.0091 39.008 28.1229 39.4249L28.1229 39.425ZM16.1166 3.13679H54.6416V10.184H16.1166V3.13679ZM7.25416 48.8632H3.10833V29.5519H7.25416V48.8632Z" fill="#1A2224" stroke="#1A2224" stroke-width="0.5"/>
<path d="M57.607 30.456C64.0731 30.456 69.315 25.2326 69.315 18.7892C69.315 12.3458 64.0731 7.12244 57.607 7.12244C51.1408 7.12244 45.8989 12.3458 45.8989 18.7892C45.8989 25.2326 51.1408 30.456 57.607 30.456Z" fill="#60D193"/>
<path d="M62.7006 14.9004C62.3037 14.5049 61.7084 14.5049 61.3777 14.9004L55.5567 20.7008L53.8369 18.987C53.44 18.5915 52.8447 18.5915 52.514 18.987C52.1171 19.3825 52.1171 19.9757 52.514 20.3053L54.8291 22.6123C54.8291 22.6782 54.8953 22.6782 54.9614 22.7441C55.3583 23.1396 55.9536 23.1396 56.2843 22.7441L62.7668 16.2846C63.0975 15.8891 63.0975 15.2959 62.7006 14.9004Z" fill="white"/>
</svg>
