<svg width="78" height="66" viewBox="0 0 78 66" fill="none" xmlns="http://www.w3.org/2000/svg">
<path d="M36.6625 0.5354C35.3712 0.5354 34.1261 1.03537 33.2499 1.94441C32.3275 2.85345 31.8202 4.0352 31.8202 5.30785C31.8202 7.98951 30.8518 10.5348 29.0533 12.5347C29.1916 11.9893 29.2377 11.3984 29.2377 10.853C29.2377 6.21689 25.4101 2.48983 20.7523 2.48983C16.0946 2.48983 12.2669 6.26234 12.2669 10.853C12.2669 11.4439 12.3131 11.9893 12.4514 12.5347C10.699 10.6257 9.68442 8.08042 9.68442 5.30785C9.68442 2.67164 7.51696 0.5354 4.84221 0.5354C2.16747 0.5354 0 2.67164 0 5.30785C0 13.2619 4.61163 20.4433 11.898 23.8522V39.215C11.898 39.215 11.898 39.215 11.898 39.2604V63.8954C11.898 64.7135 12.5897 65.3953 13.4198 65.3953C14.2499 65.3953 14.9417 64.7135 14.9417 63.8954V40.7603H28.6843V57.8957C28.6843 58.7138 29.3761 59.3956 30.2062 59.3956C31.0363 59.3956 31.728 58.7138 31.728 57.8957V22.8068C33.1115 21.9432 34.4028 20.9433 35.5557 19.807C39.4756 15.9436 41.643 10.7621 41.643 5.30785C41.5047 2.67164 39.3372 0.5354 36.6625 0.5354ZM20.7062 5.48966C23.7038 5.48966 26.1479 7.89861 26.1479 10.853C26.1479 13.8074 23.7038 16.2163 20.7062 16.2163C17.7087 16.2163 15.2645 13.8074 15.2645 10.853C15.2184 7.89861 17.6625 5.48966 20.7062 5.48966ZM33.2499 17.7162C32.0969 18.8525 30.7596 19.8525 29.2839 20.6706C28.8227 20.9433 28.4999 21.4433 28.4999 21.9887V37.7605H14.8033V22.8977C14.8033 22.3069 14.4344 21.7614 13.881 21.5342C7.24026 18.8071 2.95144 12.4438 2.95144 5.3533C2.95144 4.35336 3.78154 3.58068 4.74998 3.58068C5.76454 3.58068 6.54852 4.39881 6.54852 5.3533C6.54852 13.0347 12.9126 19.307 20.7062 19.307C24.4878 19.307 28.0387 17.8526 30.7135 15.2164C33.3882 12.5802 34.8639 9.08036 34.8639 5.3533C34.8639 4.85333 35.0484 4.44426 35.4173 4.08065C35.7401 3.76249 36.2013 3.53523 36.7086 3.53523C37.7231 3.53523 38.5071 4.35336 38.5071 5.30785C38.461 9.9894 36.6163 14.3982 33.2499 17.7162Z" fill="#2C2C2C"/>
<path d="M30.0221 62.3955C29.607 62.3955 29.2381 62.5773 28.9614 62.85C28.6847 63.1227 28.5002 63.5318 28.5002 63.8954C28.5002 64.3045 28.6847 64.6681 28.9614 64.9408C29.2381 65.2135 29.6531 65.3953 30.0221 65.3953C30.4371 65.3953 30.8061 65.2135 31.0828 64.9408C31.3595 64.6681 31.5439 64.259 31.5439 63.8954C31.5439 63.5318 31.3595 63.1227 31.0828 62.85C30.8061 62.5319 30.4371 62.3955 30.0221 62.3955Z" fill="#2C2C2C"/>
<path d="M21.6749 46.8055C20.8448 46.8055 20.1531 47.4873 20.1531 48.3055V63.8955C20.1531 64.7136 20.8448 65.3954 21.6749 65.3954C22.505 65.3954 23.1968 64.7136 23.1968 63.8955V48.3055C23.1968 47.4873 22.505 46.8055 21.6749 46.8055Z" fill="#2C2C2C"/>
<path d="M72.6791 20.9888C71.3878 20.9888 70.1427 21.4887 69.2665 22.3978C68.3441 23.3068 67.8369 24.4886 67.8369 25.7612C67.8369 28.4429 66.8684 30.9882 65.0699 32.9881C65.1621 32.4426 65.2543 31.8518 65.2543 31.3064C65.2543 26.6703 61.4267 22.9432 56.7689 22.9432C52.0651 22.9432 48.2835 26.7157 48.2835 31.3064C48.2835 31.8972 48.3297 32.4426 48.468 32.9881C46.7156 31.0791 45.701 28.5338 45.701 25.7612C45.701 23.125 43.5336 20.9888 40.8588 20.9888C38.1841 20.9888 36.0166 23.125 36.0166 25.7612C36.0166 27.5793 36.2472 29.3974 36.7545 31.1245C36.985 31.9427 37.8151 32.3972 38.5991 32.1699C39.4292 31.9427 39.8904 31.1245 39.6598 30.3519C39.2447 28.852 39.0603 27.3066 39.0603 25.7612C39.0603 24.7613 39.8904 23.9886 40.8588 23.9886C41.8734 23.9886 42.6573 24.8067 42.6573 25.7612C42.6573 33.4426 49.0214 39.715 56.8151 39.715C60.5966 39.715 64.1475 38.2605 66.8223 35.6243C69.497 32.9881 70.9728 29.4883 70.9728 25.7612C70.9728 25.2612 71.1572 24.8522 71.5262 24.4886C71.849 24.1704 72.3101 23.9431 72.8174 23.9431C73.832 23.9431 74.6159 24.7613 74.6159 25.7158C74.6159 30.3973 72.7713 34.8062 69.4048 38.0787C68.2519 39.215 66.9145 40.2149 65.4388 41.0331C64.9776 41.3058 64.6548 41.8057 64.6548 42.3512V58.123H50.9122V43.2602C50.9122 42.6693 50.5432 42.1239 49.9898 41.8966C48.5141 41.3058 47.1306 40.4876 45.8394 39.4877C45.1937 38.9877 44.2253 39.0786 43.718 39.7604C43.2107 40.3967 43.303 41.3512 43.9947 41.8512C45.1937 42.8057 46.5311 43.5784 47.9146 44.2601V59.6229C47.9146 59.6229 47.9146 59.6229 47.9146 59.6683V63.8499C47.9146 64.668 48.6063 65.3498 49.4364 65.3498C50.2665 65.3498 50.9583 64.668 50.9583 63.8499V61.1683H64.5626V63.8499C64.5626 64.668 65.2543 65.3498 66.0844 65.3498C66.9145 65.3498 67.6063 64.668 67.6063 63.8499V43.2602C68.9898 42.3966 70.281 41.3967 71.4339 40.2604C75.3538 36.397 77.5213 31.2154 77.5213 25.7612C77.5674 23.125 75.3538 20.9888 72.6791 20.9888ZM56.7228 25.943C59.7204 25.943 62.1645 28.352 62.1645 31.3064C62.1645 34.2607 59.7204 36.6697 56.7228 36.6697C53.7253 36.6697 51.2811 34.2607 51.2811 31.3064C51.2811 28.352 53.7253 25.943 56.7228 25.943Z" fill="#2C2C2C"/>
<path d="M41.9659 35.5788C41.5048 34.8971 40.5363 34.7152 39.8446 35.1698C39.1528 35.6243 38.9684 36.5788 39.4295 37.2606V37.306C39.7062 37.7151 40.2135 37.9878 40.6747 37.9878C40.9514 37.9878 41.2742 37.8969 41.5048 37.7151C42.2887 37.2151 42.4732 36.3061 41.9659 35.5788Z" fill="#2C2C2C"/>
<path opacity="0.7" d="M56.7237 25.9431C59.7213 25.9431 62.1654 28.3521 62.1654 31.3064C62.1654 34.2608 59.7213 36.6698 56.7237 36.6698C53.7261 36.6698 51.282 34.2608 51.282 31.3064C51.282 28.3521 53.7261 25.9431 56.7237 25.9431Z" fill="#3561D1"/>
<path opacity="0.7" d="M33.2503 17.7163C32.0974 18.8526 30.76 19.8525 29.2843 20.6707C28.8231 20.9434 28.5003 21.4433 28.5003 21.9888V37.7606H14.8038V22.8978C14.8038 22.3069 14.4349 21.7615 13.8815 21.5342C7.24072 18.8071 2.9519 12.4439 2.9519 5.35335C2.9519 4.35341 3.782 3.58073 4.75044 3.58073C5.765 3.58073 6.54898 4.39886 6.54898 5.35335C6.54898 13.0347 12.913 19.3071 20.7067 19.3071C24.4882 19.3071 28.0392 17.8526 30.7139 15.2164C33.3887 12.5802 34.8644 9.08041 34.8644 5.35335C34.8644 4.85338 35.0488 4.44432 35.4178 4.0807C35.7406 3.76254 36.2018 3.53528 36.709 3.53528C37.7236 3.53528 38.5076 4.35341 38.5076 5.3079C38.4615 9.98945 36.6168 14.3983 33.2503 17.7163Z" fill="#EB5433"/>
</svg>
