<svg width="273" height="316" viewBox="0 0 273 316" fill="none" xmlns="http://www.w3.org/2000/svg">
<path d="M162.492 33.0332L170.76 30.7437" stroke="#7C9A8A" stroke-width="2" stroke-miterlimit="10" stroke-linecap="round" stroke-linejoin="round"/>
<path d="M162.536 38.309L171.081 39.12" stroke="#7C9A8A" stroke-width="2" stroke-miterlimit="10" stroke-linecap="round" stroke-linejoin="round"/>
<path d="M159.364 47.3542L166.112 52.8493" stroke="#7C9A8A" stroke-width="2" stroke-miterlimit="10" stroke-linecap="round" stroke-linejoin="round"/>
<path d="M161.497 42.5214L169.665 45.2967" stroke="#7C9A8A" stroke-width="2" stroke-miterlimit="10" stroke-linecap="round" stroke-linejoin="round"/>
<path d="M145.018 27.8947L138.716 21.9318" stroke="#7C9A8A" stroke-width="2" stroke-miterlimit="10" stroke-linecap="round" stroke-linejoin="round"/>
<path d="M142.512 32.5119L134.571 29.1862" stroke="#7C9A8A" stroke-width="2" stroke-miterlimit="10" stroke-linecap="round" stroke-linejoin="round"/>
<path d="M141.109 42.0681L132.693 43.6508" stroke="#7C9A8A" stroke-width="2" stroke-miterlimit="10" stroke-linecap="round" stroke-linejoin="round"/>
<path d="M141.465 36.7764L132.987 35.3488" stroke="#7C9A8A" stroke-width="2" stroke-miterlimit="10" stroke-linecap="round" stroke-linejoin="round"/>
<path d="M143.158 302.974C151.218 303.91 157.933 303.001 158.158 300.943C158.382 298.885 152.03 296.457 143.971 295.521C135.911 294.585 129.196 295.494 128.972 297.552C128.747 299.61 135.099 302.037 143.158 302.974Z" fill="#D7CAA2"/>
<path d="M230.789 311.764C236.338 312.409 240.96 311.794 241.113 310.391C241.266 308.987 236.892 307.328 231.343 306.683C225.794 306.038 221.172 306.653 221.019 308.056C220.866 309.459 225.241 311.119 230.789 311.764Z" fill="#D7CAA2"/>
<path d="M145.434 260.406C145.434 260.406 141.666 275.73 140.64 278.889C139.613 282.048 131.017 293.984 131.017 293.984C131.017 293.984 139.046 292.051 146.008 285.735C146.764 285.075 147.1 284.079 146.922 283.08C146.65 281.379 146.318 278.636 147.103 276.657C148.292 273.574 155.227 260.637 155.227 260.637L145.434 260.406Z" fill="#EEBD9B"/>
<path d="M145.924 285.767C146.679 285.109 147.015 284.114 146.838 283.116C146.742 282.416 146.609 281.538 146.533 280.668C144.848 282.021 141.429 284.663 138.813 286.194C137.415 287.006 136.895 286.543 136.768 285.609C134.102 289.719 131.018 294.01 131.018 294.01C131.018 294.01 138.976 292.074 145.924 285.767Z" fill="#404042"/>
<path d="M216.989 262.628C216.989 262.628 225.605 275.9 227.227 278.853C228.793 281.799 231.736 296.303 231.736 296.303C231.736 296.303 235.716 289.059 235.772 279.57C235.763 278.59 235.298 277.615 234.438 277.111C232.996 276.193 230.838 274.501 229.9 272.606C228.454 269.616 223.689 255.589 223.689 255.589L216.989 262.628Z" fill="#EEBD9B"/>
<path d="M239.349 291.514C239.341 290.533 238.873 289.557 238.011 289.052C237.42 288.695 236.733 288.154 235.997 287.549C235.819 289.717 235.458 294.111 234.849 297.093C234.5 298.723 233.752 298.75 233.009 298.202C234.208 303.009 235.244 308.258 235.244 308.258C235.244 308.258 239.301 300.956 239.349 291.514Z" fill="#404042"/>
<path d="M200.554 128.946C207.935 129.814 217.795 130.974 217.795 130.974C217.795 130.974 225.05 161.512 213.483 208.361C213.483 208.361 216.8 211.455 215.187 212.128C215.187 212.128 228.574 238.727 232.579 253.408C232.579 253.408 226.723 263.247 218.242 266.219C218.242 266.219 194.386 231.427 190.518 225.507C186.651 219.587 188.556 191.392 188.556 191.392L166.905 261.331C166.905 261.331 151.095 264.016 144.006 262.032C144.006 262.032 155.088 219.671 158.837 204.522C169.069 162.636 185.59 129.084 185.59 129.084L200.554 128.946Z" fill="#7C4949"/>
<path d="M180.333 196.644C176.026 204.201 166.099 224.574 155.139 219.602C150.403 237.993 144.061 262.242 144.061 262.242C151.169 264.228 167.02 261.539 167.02 261.539L188.724 191.525L189.598 166C189.598 166 185.003 188.381 180.333 196.644Z" fill="#663D3D"/>
<path d="M198.55 137.986C207.205 137.344 214.794 133.953 218.226 132.186C218.037 131.308 217.974 130.844 217.974 130.844C217.974 130.844 208.149 129.695 200.794 128.834L185.889 128.916C185.889 128.916 184.653 131.396 182.692 135.846C186.025 137.091 191.616 138.487 198.55 137.986Z" fill="#663D3D"/>
<path d="M196.737 131.213L189.58 165.848L188.771 190.778" stroke="#462B2B" stroke-width="0.75" stroke-miterlimit="10" stroke-linecap="round" stroke-linejoin="round"/>
<path d="M210.101 131.577C210.101 131.577 211.288 145.409 220.143 153.24" stroke="#462B2B" stroke-width="0.75" stroke-miterlimit="10" stroke-linecap="round" stroke-linejoin="round"/>
<path d="M193.381 131.573C193.381 131.573 189.051 145.477 193.274 147.93" stroke="#462B2B" stroke-width="0.75" stroke-miterlimit="10" stroke-linecap="round" stroke-linejoin="round"/>
<path d="M187.559 128.968C187.559 128.968 184.997 138.915 179.814 142.451" stroke="#462B2B" stroke-width="0.75" stroke-miterlimit="10" stroke-linecap="round" stroke-linejoin="round"/>
<path d="M183.194 157.61L204.185 159.402" stroke="#462B2B" stroke-width="0.75" stroke-miterlimit="10" stroke-linecap="round" stroke-linejoin="round"/>
<path d="M184.612 160.729L198.747 162.341" stroke="#462B2B" stroke-width="0.75" stroke-miterlimit="10" stroke-linecap="round" stroke-linejoin="round"/>
<path d="M155.948 37.1919C155.948 37.1919 155.054 34.3839 154.568 35.1893C154.138 36.0013 154.07 36.6259 154.07 36.6259C154.07 36.6259 152.21 35.3719 152.243 36.1234C152.276 36.8748 152.089 37.543 152.089 37.543C152.089 37.543 150.692 36.2284 150.662 37.03C150.633 37.8316 150.903 38.496 150.903 38.496C150.903 38.496 149.517 37.0679 149.833 38.3701C150.148 39.6724 150.679 38.9872 150.651 40.8242C150.624 42.6611 149.838 46.7666 151.262 48.8894C151.262 48.8894 156.076 68.2027 157.827 70.9965C159.521 73.7836 177.864 92.9635 177.864 92.9635L185.524 79.6032L165.703 65.655C165.703 65.655 156.942 48.58 155.929 45.8155C154.859 43.0444 156.351 38.2168 155.948 37.1919Z" fill="#EEBD9B"/>
<path d="M177.706 92.9568L185.371 79.589L173.967 71.5734C173.925 75.6537 173.912 84.2252 174.575 89.7117C176.476 91.6614 177.706 92.9568 177.706 92.9568Z" fill="#CB9069"/>
<path d="M222.434 123.892C223.822 124.744 220.007 127.911 214.176 129.177L211.487 121.916L220.66 120.814L222.434 123.892Z" fill="#508DA0"/>
<path d="M216.107 122.033C216.107 122.033 216.149 127.417 216.337 130.414C216.524 133.411 200.336 134.773 185.647 131.219L216.107 122.033Z" fill="#CB9069"/>
<path d="M195.873 72.7522C195.873 72.7522 191.345 71.9907 190.08 66.8536C188.814 61.7165 192.311 53.0682 197.656 53.6391C203.054 50.0307 204.835 50.9281 206.736 52.2983C208.581 53.6618 210.51 56.8701 213.616 55.5151C216.722 54.1601 222.18 52.1068 225.036 56.2266C227.885 60.4031 228.328 59.9964 231.418 60.3597C234.566 60.7296 239.507 62.3999 242.302 67.6021C245.042 72.7977 252.992 68.2277 255.434 77.7461C255.434 77.7461 253.197 82.6434 248.392 83.9135C243.588 85.1836 244.912 85.5686 241.104 88.676C237.297 91.7833 237.714 91.6031 234.232 92.2259C230.688 92.8987 232.13 95.8777 227.705 96.2749C227.705 96.2749 213.572 84.8665 208.953 82.3168C204.328 79.8237 195.873 72.7522 195.873 72.7522Z" fill="#CB2947"/>
<path d="M199.666 82.5573C199.666 82.5573 197.175 81.3447 195.575 81.3862C193.975 81.4278 193.206 81.6823 190.798 80.7667C188.389 79.851 183.407 76.9084 183.407 76.9084C183.407 76.9084 174.266 82.3848 176.283 93.2546L183.651 97.8572C183.651 97.8572 182.659 101.764 184.129 105.557C186.845 112.601 187.911 114.336 186.829 120.128C185.797 125.984 182.941 129.211 183.024 130.026C183.045 130.89 193.671 133.29 205.638 128.549C217.6 123.864 218.908 121.776 222.575 123.702C222.575 123.702 221.207 112.104 221.956 108.341C222.704 104.579 231.929 94.6296 231.929 94.6296C231.929 94.6296 233.075 92.4655 234.221 87.6577C235.368 82.8499 235.015 69.7622 230.085 70.5613C228.285 70.8668 224.653 73.8878 222.717 74.9245C220.782 75.9611 217.657 79.5591 217.657 79.5591L199.666 82.5573Z" fill="#7AC3E0"/>
<path d="M226.806 89.8011C227.99 93.6209 230.5 94.1462 231.423 92.9897C232.347 91.8331 234.096 84.6203 234.096 84.6203L226.806 89.8011Z" fill="#508DA0"/>
<path d="M206.512 56.4164C206.512 56.4164 208.063 58.3656 211.906 59.1001C215.749 59.8346 218.406 57.3511 221.332 57.6362C224.263 57.8649 223.405 61.5853 227.074 62.8698C230.744 64.1543 236.898 63.5053 239.497 68.8847" stroke="#E58D9F" stroke-width="0.75" stroke-miterlimit="10" stroke-linecap="round" stroke-linejoin="round"/>
<path d="M205.047 58.3318C205.047 58.3318 207.73 61.8978 211.517 62.6262C215.361 63.3611 218.018 60.8764 220.944 61.1616C223.875 61.3905 223.016 65.1126 226.686 66.3978C230.356 67.683 236.51 67.0337 239.11 72.4157" stroke="#E58D9F" stroke-width="0.75" stroke-miterlimit="10" stroke-linecap="round" stroke-linejoin="round"/>
<path d="M154.725 40.6604C154.725 40.6604 152.545 38.1013 152.308 38.7068C152.014 39.3056 152.868 39.8664 153.102 40.8727C153.33 41.9357 152.622 44.7885 154.699 46.1841" stroke="#CB9069" stroke-width="0.75" stroke-miterlimit="10" stroke-linecap="round" stroke-linejoin="round"/>
<path d="M197.549 59.5125C197.549 59.5125 195.54 61.7477 195.32 63.7909C195.099 65.8341 194.965 67.6002 193.571 67.8385C193.571 67.8385 194.343 72.2976 195.022 73.9294C195.701 75.5611 196.531 77.9004 199.824 76.9659L201.507 80.9C201.507 80.9 197.746 81.9518 196.314 82.0133C194.883 82.0748 192.308 88.4967 200.587 89.4134C208.867 90.3301 213.83 83.9593 217.766 79.7093C217.766 79.7093 214.216 80.3837 211.512 79.031C208.746 77.7284 206.493 73.2674 206.493 73.2674C206.493 73.2674 206.673 72.6563 207.301 71.0633C207.301 71.0633 210.107 70.4164 210.282 67.7356C210.458 65.0548 207.724 67.1472 207.724 67.1472C207.724 67.1472 201.36 67.4905 197.549 59.5125Z" fill="#EEBD9B"/>
<path d="M197.833 83.7971C197.833 83.7971 201.883 83.6445 202.769 84.3663" stroke="#CB9069" stroke-width="0.75" stroke-miterlimit="10" stroke-linecap="round" stroke-linejoin="round"/>
<path d="M199.831 76.9805C201.847 76.2413 204.563 75.3548 205.623 73.9862C205.258 75.7811 200.471 78.4342 200.471 78.4342L199.831 76.9805Z" fill="#CB9069"/>
<path d="M195.62 69.8215L200.466 69.2433C200.466 69.2433 200.942 72.7443 199.519 73.2659C196.972 74.172 195.62 69.8215 195.62 69.8215Z" fill="#FBF2D5"/>
<path d="M198.664 65.4952C198.664 65.4952 199.391 64.5555 200.797 65.7442" stroke="#AF7D5B" stroke-width="0.75" stroke-miterlimit="10" stroke-linecap="round" stroke-linejoin="round"/>
<path d="M196.77 65.1725C196.77 65.1725 196.201 64.6501 195.23 65.2205" stroke="#AF7D5B" stroke-width="0.75" stroke-miterlimit="10" stroke-linecap="round" stroke-linejoin="round"/>
<path d="M194.534 68.433L195.038 68.4905" stroke="#CB9069" stroke-width="0.75" stroke-miterlimit="10" stroke-linecap="round" stroke-linejoin="round"/>
<path d="M220.786 82.3348C220.786 82.3348 217.248 91.8188 219.69 97.2286C222.189 102.645 226.774 99.3275 226.774 99.3275" stroke="#508DA0" stroke-miterlimit="10"/>
<path d="M215.725 92.8246C215.725 92.8246 216.504 100.901 222.805 101.643" stroke="#508DA0" stroke-miterlimit="10"/>
<path d="M214.71 100.089L219.709 103.31" stroke="#508DA0" stroke-miterlimit="10"/>
<path d="M240.491 63.3407C240.491 63.3407 231.975 68.5604 229.52 70.6332C227.128 72.6559 226.23 80.9581 226.41 86.1622C226.647 91.3729 227.557 91.4221 227.557 91.4221C227.557 91.4221 237.566 83.4984 243.278 78.8134C248.99 74.1284 254.119 69.5477 252.971 61.1204C251.83 52.6363 242.705 31.2367 242.705 31.2367C242.705 31.2367 241.913 24.8092 240.5 24.125C239.087 23.4408 236.159 24.5943 234.848 24.5556C233.599 24.4665 230.147 26.7678 232.066 29.1238C232.066 29.1238 231.441 30.1446 231.982 30.9568C232.517 31.8258 234.135 34.3192 236.707 34.3333L240.491 63.3407Z" fill="#EEBD9B"/>
<path d="M249.013 62.734C251.049 62.3976 251.108 66.6071 249.568 67.6351C247.972 68.6565 247.633 68.0984 248.13 66.142C248.577 64.122 247.966 62.8989 249.013 62.734Z" fill="#CB9069"/>
<path d="M233.673 67.7873C231.947 68.91 230.398 69.9957 229.576 70.7058C227.18 72.7292 226.281 81.0344 226.462 86.2402C226.7 91.4527 227.611 91.5019 227.611 91.5019C227.611 91.5019 229.926 89.6994 232.943 87.2304C228.747 85.2407 230.891 74.4316 233.673 67.7873Z" fill="#CB9069"/>
<path d="M215.226 108.904C215.226 108.904 204.746 120.432 201.498 122.005" stroke="#508DA0" stroke-miterlimit="10"/>
<path d="M213.06 117.195L198.731 126.993" stroke="#508DA0" stroke-miterlimit="10"/>
<path d="M232.262 29.1865C232.262 29.1865 235.926 27.4347 236.834 28.001C237.735 28.624 234.364 30.2955 234.364 30.2955C234.364 30.2955 235.984 31.118 236.13 32.399" stroke="#CB9069" stroke-width="0.75" stroke-miterlimit="10" stroke-linecap="round" stroke-linejoin="round"/>
<path d="M205.101 208.644C205.101 208.644 203.283 214.88 199.411 219.492" stroke="#462B2B" stroke-width="0.75" stroke-miterlimit="10" stroke-linecap="round" stroke-linejoin="round"/>
<path d="M206.707 211.063C206.651 211.575 204.646 219.411 204.646 219.411" stroke="#462B2B" stroke-width="0.75" stroke-miterlimit="10" stroke-linecap="round" stroke-linejoin="round"/>
<path d="M177.444 209.667L165.657 220.638" stroke="#462B2B" stroke-width="0.75" stroke-miterlimit="10" stroke-linecap="round" stroke-linejoin="round"/>
<path d="M175.051 214.323L171.654 220.372" stroke="#462B2B" stroke-width="0.75" stroke-miterlimit="10" stroke-linecap="round" stroke-linejoin="round"/>
<path d="M232.313 253.414C231.941 252.106 231.519 250.734 231.054 249.243C228.716 252.416 223.439 258.521 215.627 262.775C217.106 264.903 217.991 266.214 217.991 266.214C226.463 263.245 232.313 253.414 232.313 253.414Z" fill="#B06565"/>
<path d="M145.039 258.552C144.445 260.881 144.061 262.321 144.061 262.321C151.126 264.291 166.882 261.624 166.882 261.624L168.108 257.656C156.068 259.615 148.726 259.155 145.039 258.552Z" fill="#B06565"/>
<path d="M198.105 63.8703C198.105 63.8703 199.239 63.3739 201.018 63.7544L200.892 62.8238C200.892 62.8238 199.094 62.6128 198.041 63.405L198.105 63.8703Z" fill="#B2253F"/>
<path d="M197.191 63.9522C197.191 63.9522 196.853 63.3977 194.284 64.0116L194.332 63.0448C194.332 63.0448 196.309 62.6475 197.24 63.5003L197.191 63.9522Z" fill="#B2253F"/>
<path d="M209.322 68.7947C209.858 68.0529 209.763 67.3518 209.494 67.2052C208.899 66.9052 207.108 68.7067 207.342 69.7115" stroke="#CB9069" stroke-width="0.75" stroke-miterlimit="10" stroke-linecap="round" stroke-linejoin="round"/>
<path d="M183.728 97.9859C184.663 93.5575 187.024 90.1588 187.024 90.1588C187.024 90.1588 185.44 88.9959 183.246 91.3802C181.887 92.8863 179.614 93.8827 178.072 94.448L183.728 97.9859Z" fill="#508DA0"/>
<path d="M96.9303 299.356C110.073 300.882 120.988 299.719 121.311 296.759C121.634 293.8 111.242 290.163 98.0993 288.637C84.9571 287.112 74.0415 288.274 73.7187 291.234C73.3959 294.194 83.788 297.831 96.9303 299.356Z" fill="#D7CAA2"/>
<path d="M22.0495 290.822C34.0455 292.216 44.0319 290.944 44.3548 287.983C44.6776 285.021 35.2147 281.491 23.2187 280.097C11.2227 278.704 1.23631 279.975 0.91344 282.937C0.59057 285.898 10.0535 289.429 22.0495 290.822Z" fill="#D7CAA2"/>
<path d="M42.1662 260.076C42.1662 260.076 32.5531 268.885 31.7134 270.855C30.8738 272.824 31.0146 277.323 31.0146 277.323L24.3148 277.626L16.909 269.17L19.5163 266.661C19.5163 266.661 29.3033 257.298 30.8434 252.538L42.1662 260.076Z" fill="#BC6363"/>
<path d="M39.1268 262.875C40.84 261.242 42.1671 260.022 42.1671 260.022L30.8645 252.445C30.2814 254.154 28.601 256.536 26.7019 258.834C31.7913 259.662 36.7399 261.792 39.1268 262.875Z" fill="#8F3D3D"/>
<path d="M104.577 266.385C104.577 266.385 100.465 280.198 101.769 282.361C103.129 284.53 106.702 287.305 111.38 289.865C116.059 292.425 115.594 294.093 108.282 293.233L84.831 290.473C83.9874 290.374 83.5169 289.457 83.8839 288.696C84.9787 286.471 87.0692 282.411 88.7692 279.855C91.1604 276.174 92.0595 264.165 92.0595 264.165L104.577 266.385Z" fill="#BC6363"/>
<path d="M103.898 268.735C104.282 267.292 104.617 266.3 104.617 266.3L92.106 264.144C92.106 264.144 91.9001 267.097 91.3644 270.47C95.3682 269.222 100.753 268.881 103.898 268.735Z" fill="#8F3D3D"/>
<path d="M104.651 121.959L106.458 132.701C106.458 132.701 117.818 163.324 117.367 198.656C116.917 233.988 106.414 267.275 106.414 267.275L84.1517 264.656C84.1517 264.656 85.8934 256.46 87.4219 253.936C88.9504 251.411 89.0527 237.787 90.6733 234.411C92.2939 231.034 94.0067 215.183 94.0067 215.183L87.5777 183.299C87.5777 183.299 84.1538 207.062 79.9523 218.477C75.7446 229.95 42.8647 262.733 42.8647 262.733C42.8647 262.733 37.2304 259.941 26.2911 250.254C26.2911 250.254 29.9853 244.59 33.0695 243.514C36.1537 242.438 38.0088 231.61 42.8112 228.895C47.6136 226.18 50.3923 211.03 55.4764 208.348C55.4764 208.348 58.7905 144.93 63.3297 130.389L104.651 121.959Z" fill="#749199"/>
<path d="M102.888 195.738C102.182 174.747 89.5697 163.245 89.5697 163.245L87.3465 183.259L93.7987 215.178C93.7987 215.178 92.0813 231.047 90.4557 234.427C88.8301 237.808 88.7284 251.447 87.1951 253.974C85.6619 256.502 83.9151 264.706 83.9151 264.706L106.25 267.327C106.25 267.327 110.516 253.83 113.703 234.966C105.937 225.242 103.226 206.376 102.888 195.738Z" fill="#5C8187"/>
<path d="M104.751 121.842L63.6109 130.296C62.9912 132.342 62.3799 135.363 61.7573 139.013C77.7498 140.548 98.4322 131.867 105.808 128.38L104.751 121.842Z" fill="#5C8187"/>
<path d="M69.7456 130.65C69.7456 130.65 69.5351 140.526 60.9596 144.813" stroke="#AFDCC6" stroke-width="0.75" stroke-miterlimit="10" stroke-linecap="round" stroke-linejoin="round"/>
<path d="M72.4703 129.646C72.4703 129.646 72.7823 143.667 60.6012 147.529" stroke="#AFDCC6" stroke-width="0.75" stroke-miterlimit="10" stroke-linecap="round" stroke-linejoin="round"/>
<path d="M87.6248 183.285C88.5543 175.839 91.1393 151.115 91.1393 151.115L90.1802 126.961" stroke="#AFDCC6" stroke-width="0.75" stroke-miterlimit="10" stroke-linecap="round" stroke-linejoin="round"/>
<path d="M93.4107 126.922C93.4107 126.922 94.0575 135.817 94.2046 139.235C94.3518 142.653 90.9268 145.539 90.9268 145.539" stroke="#AFDCC6" stroke-width="0.75" stroke-miterlimit="10" stroke-linecap="round" stroke-linejoin="round"/>
<path d="M73.9126 50.016C73.9126 50.016 79.712 50.1241 80.0274 45.6232C82.4114 44.123 83.5645 39.7782 78.6508 38.8552C78.8069 35.8291 76.6781 33.9127 73.9577 35.8903C70.2355 33.9586 66.7899 35.7934 66.103 38.9868C64.3219 35.9625 58.7073 40.4715 59.6919 45.068C55.3011 46.1596 54.8753 51.6815 59.5968 53.3286C58.1379 57.8673 64.907 58.4916 64.907 58.4916L73.9126 50.016Z" fill="#362F58"/>
<path d="M144.825 65.8993C144.825 65.8993 148.522 52.8127 150.087 49.9473C151.653 47.0819 154.381 43.4902 153.778 42.7288C153.176 41.9675 152.286 44.3945 151.252 43.9276C150.217 43.4607 153.131 38.6825 154.999 36.7158C156.811 34.7424 155.688 34.035 153.931 34.979C153.931 34.979 153.314 33.2953 151.414 35.0282C151.414 35.0282 151.768 33.8616 150.842 33.9827C149.916 34.1039 148.93 35.8292 148.93 35.8292C148.93 35.8292 149.408 34.0442 149.008 34.0546C148.607 34.065 146.562 35.0327 144.901 46.1726L134.462 59.847L144.825 65.8993Z" fill="#BC6363"/>
<path d="M137.874 55.1821L134.355 59.8185L144.798 65.9253C144.798 65.9253 146.001 61.6477 147.31 57.44C143.425 57.5569 139.981 56.2335 137.874 55.1821Z" fill="#8F3D3D"/>
<path d="M72.499 64.3629C72.499 64.3629 87.1494 59.4849 95.0415 60.758C102.934 62.0311 125.853 71.2725 125.853 71.2725L134.194 57.3279L147.648 65.6277C147.648 65.6277 136.786 98.6795 130.544 97.945C124.303 97.2105 104.241 89.4536 104.241 89.4536C104.241 89.4536 104.52 112.162 106.464 115.778C108.408 119.394 108.762 124.028 106.209 124.991C103.656 125.953 67.2144 132.228 62.2587 131.186C57.2968 130.2 59.5267 130.118 59.2529 124.747C58.9792 119.376 54.4307 98.2315 54.4307 98.2315L48.5588 74.5775C48.6089 74.6408 62.8786 66.9624 72.499 64.3629Z" fill="#2F8C59"/>
<path d="M56.8511 109.943L64.9001 95.5184L71.7841 102.924C72.1408 103.31 72.5844 103.42 73.1025 103.366C73.5644 103.305 74.0007 102.955 74.1621 102.515L79.4379 90.5747L87.756 99.9845C88.1127 100.371 88.6063 100.543 89.0744 100.426C89.5363 100.366 89.9726 100.016 90.1401 99.5192L95.4688 86.0362L104.407 96.5513C104.316 94.7625 104.319 93.1568 104.279 91.9476L96.154 82.3312C95.7973 81.9451 95.3036 81.7723 94.8417 81.8327C94.3236 81.8865 93.9435 82.2433 93.7197 82.7332L88.385 96.2729L80.167 86.9897C79.8665 86.6102 79.3729 86.4374 78.8548 86.4912C78.3928 86.5516 77.9565 86.9018 77.7389 87.335L72.4008 99.3257L65.617 92.0466C65.3104 91.7237 64.8167 91.551 64.411 91.618C63.9491 91.6783 63.5812 91.9219 63.3074 92.3485L55.899 105.587C56.2702 106.893 56.5606 108.418 56.8511 109.943Z" fill="#E3CD3E"/>
<path d="M73.2513 120.701C62.38 114.827 61.608 107.213 62.4252 100.705C63.2424 94.197 57.0758 85.3739 57.0758 85.3739L52.7407 91.7551L54.4106 98.441C54.4106 98.441 58.96 119.593 59.2338 124.966C59.5076 130.339 57.2834 130.364 62.2402 131.407C65.9217 132.128 86.8329 128.903 98.5058 126.831C91.4384 126.344 81.8082 125.326 73.2513 120.701Z" fill="#1E633B"/>
<path d="M60.7484 116.241C60.7484 116.241 63.7778 116.195 64.5929 113.932C65.4081 111.669 65.7597 106.303 67.9735 105.355C70.1872 104.407 73.1141 103.198 72.8194 105.925C72.8194 105.925 74.1874 107.524 73.5893 108.835C73.5893 108.835 74.2481 109.602 73.4073 111.575C73.4073 111.575 73.9608 112.79 72.7796 113.687C71.5924 114.64 70.3739 118.524 67.75 117.985L60.6316 123.131L60.7484 116.241Z" fill="#BC6363"/>
<path d="M65.3105 111.1C65.0747 112.224 64.8511 113.234 64.6018 113.954C63.7851 116.218 60.7497 116.265 60.7497 116.265L60.633 123.161L65.4672 119.698C65.0703 115.966 65.3105 111.1 65.3105 111.1Z" fill="#8F3D3D"/>
<path d="M61.9059 95.1443L56.0191 105.682C56.013 105.739 56.0571 105.859 56.051 105.916C56.0829 106.15 56.1651 106.448 56.1969 106.682C56.1908 106.738 56.235 106.859 56.2288 106.916C56.311 107.213 56.3368 107.504 56.419 107.802C56.4128 107.859 56.4128 107.859 56.4631 107.922C56.5392 108.277 56.6153 108.631 56.6913 108.985L56.6852 109.042C56.7612 109.397 56.8373 109.751 56.9072 110.162L62.5876 99.9463C62.6469 98.3409 62.3672 96.6957 61.9059 95.1443Z" fill="#B4A232"/>
<path d="M63.7593 89.2431L57.2815 101.553" stroke="#1E633B" stroke-miterlimit="10"/>
<path d="M72.7262 69.8721C76.9441 68.7626 78.125 66.2641 77.9898 64.3561C77.9631 63.5503 77.1691 62.9982 76.4579 63.2586C74.1682 63.9068 72.6335 64.4143 72.6335 64.4143C70.4683 64.9625 68.0978 65.8304 65.7212 66.755C65.0663 67.0221 64.812 67.7948 65.1442 68.4073C66.0088 69.885 68.3959 70.9683 72.7262 69.8721Z" fill="#1E633B"/>
<path d="M112.083 81.9425C109.486 76.4759 103.444 77.0843 103.444 77.0843C103.881 79.8884 104.081 83.2955 104.282 89.3406C104.282 89.3406 119.522 95.2618 127.562 97.2395C127.609 93.1161 114.341 86.8532 112.083 81.9425Z" fill="#1E633B"/>
<path d="M108.568 73.3439C108.568 73.3439 107.724 83.7386 105.453 88.6636" stroke="#1E633B" stroke-miterlimit="10"/>
<path d="M102.868 71.7682L104.057 82.5098" stroke="#1E633B" stroke-miterlimit="10"/>
<path d="M125.855 71.113L121.721 78.1685" stroke="#1E633B" stroke-miterlimit="10"/>
<path d="M48.6745 74.8463C57.4419 69.7785 61.0417 87.1761 58.0336 97.5821C55.0254 107.988 50.1929 117.316 50.1929 117.316L62.5721 114.745L64.4347 124.976C64.4347 124.976 46.1277 136.977 39.005 141.087C31.8884 145.141 18.5874 144.094 24.0004 125.168C29.4196 106.184 39.0506 80.4462 48.6745 74.8463Z" fill="#2F8C59"/>
<path d="M54.8516 106.671C50.9286 107.128 48.4985 113.275 43.6765 114.144C38.2799 115.059 36.1299 120.722 36.1299 120.722L50.1067 117.37C50.1067 117.37 52.4716 112.881 54.8516 106.671Z" fill="#1E633B"/>
<path d="M36.1296 120.804C36.1296 120.804 33.606 123.038 32.1098 125.796" stroke="#1E633B" stroke-miterlimit="10"/>
<path d="M55.5181 75.8896C55.5181 75.8896 63.2258 85.3772 55.9863 103.895" stroke="#1E633B" stroke-miterlimit="10"/>
<path d="M103.174 115.514C103.174 115.514 94.5806 111.955 91.4449 112.044" stroke="#1E633B" stroke-miterlimit="10"/>
<path d="M97.6499 201.626L107.296 211.428" stroke="#AFDCC6" stroke-width="0.75" stroke-miterlimit="10" stroke-linecap="round" stroke-linejoin="round"/>
<path d="M98.4741 213.31L109.218 218.05" stroke="#AFDCC6" stroke-width="0.75" stroke-miterlimit="10" stroke-linecap="round" stroke-linejoin="round"/>
<path d="M63.1701 206.404C63.1701 206.404 60.9945 211.05 62.9733 216.699" stroke="#AFDCC6" stroke-width="0.75" stroke-miterlimit="10" stroke-linecap="round" stroke-linejoin="round"/>
<path d="M59.3516 213.695L61.9305 219.406" stroke="#AFDCC6" stroke-width="0.75" stroke-miterlimit="10" stroke-linecap="round" stroke-linejoin="round"/>
<path d="M86.3887 261.067L104.955 263.184" stroke="#AFDCC6" stroke-width="0.75" stroke-miterlimit="10" stroke-linecap="round" stroke-linejoin="round"/>
<path d="M29.9668 249.216L43.6645 259.365" stroke="#AFDCC6" stroke-width="0.75" stroke-miterlimit="10" stroke-linecap="round" stroke-linejoin="round"/>
<path d="M111.394 289.892C106.723 287.345 103.099 284.578 101.797 282.426C101.703 282.244 101.609 282.061 101.584 281.773C97.799 282.586 95.4107 285.734 95.4107 285.734L86.8781 283.134C85.7474 285.172 84.6605 287.33 83.9461 288.674C83.5797 289.431 84.0495 290.343 84.8918 290.442L108.308 293.186C115.545 294.091 116.066 292.439 111.394 289.892Z" fill="#363542"/>
<path d="M18.9883 267.19C18.9883 267.19 22.9997 271.676 24.1794 274.452C25.3651 277.172 27.901 274.775 30.98 275.252L33.7359 282.4C33.7359 282.4 39.5927 285.612 39.5581 286.984C39.5297 288.299 31.6468 286.455 29.2863 286.177C26.9258 285.9 22.6495 280.179 19.8627 279.106C17.0759 278.032 12.2481 274.254 13.4668 271.931C14.6856 269.609 18.9883 267.19 18.9883 267.19Z" fill="#363542"/>
<path d="M81.232 153.545L103.184 149.323" stroke="#AFDCC6" stroke-width="0.75" stroke-miterlimit="10" stroke-linecap="round" stroke-linejoin="round"/>
<path d="M102.133 152.652L81.7103 154.88" stroke="#AFDCC6" stroke-width="0.75" stroke-miterlimit="10" stroke-linecap="round" stroke-linejoin="round"/>
<path d="M153.546 35.3946C153.546 35.3946 151.544 37.5201 150.822 40.4871" stroke="#8F3D3D" stroke-width="0.75" stroke-miterlimit="10" stroke-linecap="round" stroke-linejoin="round"/>
<path d="M150.928 35.4389C150.928 35.4389 149.398 37.3912 149.015 40.3997" stroke="#8F3D3D" stroke-width="0.75" stroke-miterlimit="10" stroke-linecap="round" stroke-linejoin="round"/>
<path d="M148.559 36.3197C148.559 36.3197 147.668 38.1749 147.307 40.438" stroke="#8F3D3D" stroke-width="0.75" stroke-miterlimit="10" stroke-linecap="round" stroke-linejoin="round"/>
<path d="M73.4778 45.3313C73.4778 45.3313 72.702 48.2885 68.0521 48.0289C67.4235 49.6229 64.8908 50.3602 64.8908 50.3602L65.6553 53.8438C65.6553 53.8438 64.6453 52.6321 63.4685 52.4361C62.3541 52.1899 62.5308 55.8344 65.3351 56.2795L64.9084 58.645L66.2267 66.5077C66.3282 67.1524 66.8363 67.7298 67.5 67.923C69.1654 68.349 72.4265 68.7903 75.3307 66.1986C75.7741 65.7906 76.0106 65.1857 75.9654 64.5477L75.637 60.1951C75.637 60.1951 76.6449 60.3713 77.5183 59.1511C78.3918 57.931 77.3606 52.6904 77.3606 52.6904L78.4544 52.0714L76.0512 48.9702C76.0573 48.9134 75.0267 46.8365 73.4778 45.3313Z" fill="#BC6363"/>
<path d="M76.3468 53.9985L70.4454 54.9086C70.4454 54.9086 72.99 57.1541 75.1665 56.4937C76.5882 55.9736 76.3468 53.9985 76.3468 53.9985Z" fill="#FBF2D5"/>
<path d="M76.4115 51.8535L75.8129 52.1271" stroke="#8F3D3D" stroke-width="0.75" stroke-miterlimit="10" stroke-linecap="round" stroke-linejoin="round"/>
<path d="M69.7183 51.2534C69.7183 51.2534 70.6647 50.3924 72.1187 50.6201" stroke="#8F3D3D" stroke-width="0.75" stroke-miterlimit="10" stroke-linecap="round" stroke-linejoin="round"/>
<path d="M75.2613 50.2977C75.4635 50.2175 75.4973 49.8175 75.3367 49.4042C75.1761 48.9909 74.882 48.7209 74.6797 48.8011C74.4775 48.8813 74.4437 49.2813 74.6043 49.6946C74.7648 50.1079 75.059 50.3779 75.2613 50.2977Z" fill="#362F58"/>
<path d="M69.0781 49.3358L71.8769 49.2074" stroke="#362F58" stroke-width="0.75" stroke-miterlimit="10" stroke-linecap="round" stroke-linejoin="round"/>
<path d="M75.6058 60.2013C73.3652 60.3964 70.5555 60.0662 68.0796 58.2275C68.1813 62.0225 71.1769 61.6868 72.6207 62.5443C74.0645 63.4018 74.3221 64.1772 75.9139 64.1924L75.6058 60.2013Z" fill="#8F3D3D"/>
<path d="M74.8528 46.9483L73.8105 48.1485" stroke="#362F58" stroke-width="0.75" stroke-miterlimit="10" stroke-linecap="round" stroke-linejoin="round"/>
<path d="M91.9578 279.985C91.9578 279.985 90.9495 281.935 93.8445 282.563" stroke="#8F3D3D" stroke-width="0.75" stroke-miterlimit="10" stroke-linecap="round" stroke-linejoin="round"/>
<path d="M25.2181 267.188C25.2181 267.188 23.1737 269.137 25.322 271.52" stroke="#8F3D3D" stroke-width="0.75" stroke-miterlimit="10" stroke-linecap="round" stroke-linejoin="round"/>
</svg>
