<svg width="72" height="86" viewBox="0 0 72 86" fill="none" xmlns="http://www.w3.org/2000/svg">
<path d="M16.3489 16.5243L18.0074 16.0166L17.123 13.1279C16.8248 13.1761 15.8137 13.3888 14.6677 13.7397C12.2766 14.4717 11.0991 16.4773 11.9455 19.2418L12.7244 21.786L10.0858 22.5939L11.0744 25.8232L13.7131 25.0153L16.2007 33.1408L19.4358 32.1504L16.9484 24.0257L19.4803 23.2505L18.8936 19.8982L15.959 20.7966L15.2778 18.5718C14.9929 17.6382 15.0486 16.9224 16.3489 16.5243Z" fill="#3561D1"/>
<path d="M40.6654 0.0118496C35.254 0.269509 30.9836 4.77615 31 10.1937C31.005 11.8437 31.4034 13.4011 32.1061 14.7772L31.0272 20.0144C30.9688 20.2976 31.2243 20.5457 31.5058 20.4791L36.6375 19.2632C37.956 19.92 39.4368 20.2993 41.0041 20.3232C46.5351 20.4077 51.1469 16.016 51.3193 10.4871C51.5041 4.56048 46.6127 -0.271389 40.6654 0.0118496ZM46.7887 15.7887C45.2858 17.2916 43.2876 18.1193 41.1622 18.1193C39.9177 18.1193 38.7263 17.84 37.6208 17.2894L36.9061 16.9334L33.7598 17.6788L34.4221 14.4639L34.07 13.7744C33.4961 12.6505 33.2051 11.4352 33.2051 10.1622C33.2051 8.03678 34.0328 6.03862 35.5357 4.53569C37.0251 3.04623 39.0559 2.20509 41.1624 2.20509C43.2877 2.20514 45.2858 3.03281 46.7887 4.53564C48.2916 6.03852 49.1193 8.03668 49.1193 10.162C49.1193 12.2685 48.2781 14.2993 46.7887 15.7887Z" fill="#3561D1"/>
<path d="M46.0941 12.366L44.1257 11.8008C43.8669 11.7265 43.5882 11.7999 43.3997 11.9921L42.9183 12.4825C42.7153 12.6893 42.4074 12.7558 42.1387 12.6471C41.2076 12.2702 39.2488 10.5287 38.7486 9.65752C38.6043 9.40623 38.6281 9.09207 38.8053 8.86279L39.2256 8.3191C39.3902 8.10608 39.425 7.82 39.3161 7.57375L38.4879 5.7007C38.2896 5.25208 37.7163 5.12148 37.3417 5.43824C36.7924 5.90289 36.1405 6.60898 36.0613 7.39122C35.9216 8.77037 36.513 10.5089 38.7497 12.5964C41.3336 15.0081 43.4029 15.3268 44.7501 15.0004C45.5143 14.8153 46.1249 14.0733 46.5103 13.4658C46.7731 13.0515 46.5656 12.5014 46.0941 12.366Z" fill="#3561D1"/>
<g clip-path="url(#clip0)">
<path d="M62.1283 26.2255C64.5174 26.5452 66.1926 28.7403 65.8732 31.1273C65.5535 33.5165 63.3584 35.1917 60.9714 34.8723C58.5822 34.5526 56.907 32.3575 57.2264 29.9704C57.5461 27.5813 59.7412 25.9061 62.1283 26.2255ZM61.1744 33.3551C62.7252 33.5626 64.1486 32.4745 64.356 30.9244C64.5634 29.3742 63.4755 27.9501 61.9253 27.7427C60.3751 27.5353 58.951 28.6232 58.7436 30.1734C58.5355 31.7235 59.6235 33.1476 61.1744 33.3551Z" fill="#3561D1"/>
<path d="M59.1989 21.7177C60.7588 21.8528 64.598 22.3701 66.1404 22.6465C67.4953 22.8928 68.6539 23.383 69.4937 24.4823C70.8973 26.3195 70.398 28.4752 69.9696 31.6774C69.5311 34.9547 69.4283 37.112 67.6189 38.4943C65.7747 39.9027 63.5881 39.3936 60.4238 38.9702C57.1774 38.5359 56.0566 38.388 54.9682 37.79C53.4885 36.9753 52.4971 35.4227 52.7172 32.9016C52.8517 31.3409 53.3696 27.5025 53.646 25.9601C54.1807 23.0209 56.0081 21.4394 59.1989 21.7177ZM54.8315 35.6921C55.7516 36.8965 57.238 36.9989 60.6473 37.455C64.1577 37.9247 65.5584 38.165 66.7233 37.2725C68.0638 36.2534 68.1027 34.334 68.4862 31.4675C69.0052 27.5885 69.7771 24.8482 65.9107 24.1279C65.0205 23.9767 64.7586 23.9309 62.5071 23.6296L62.4727 23.6465C58.7313 23.1459 55.8483 22.3614 55.1513 26.2301C54.9925 27.1129 54.9476 27.3785 54.6469 29.6265C54.1833 33.0963 53.9279 34.5035 54.8315 35.6921Z" fill="#3561D1"/>
<path d="M57.5216 26.4639C56.9636 26.3892 56.5718 25.8764 56.6465 25.3184C56.7211 24.7605 57.234 24.3687 57.792 24.4433C58.3499 24.518 58.7417 25.0308 58.6671 25.5888C58.5924 26.1467 58.0796 26.5385 57.5216 26.4639Z" fill="#3561D1"/>
</g>
<path fill-rule="evenodd" clip-rule="evenodd" d="M16.1092 54.2596L14.027 47.9806H23.8898C24.9309 47.9806 25.8076 47.107 25.8076 46.0696C25.8076 45.0322 24.9309 44.1586 23.8898 44.1586H12.7668L10.849 38.3164C10.5751 37.4974 9.86276 37.006 9.04086 37.006H1.91776C0.87669 37.006 0 37.8796 0 38.917C0 39.9544 0.87669 40.828 1.91776 40.828H7.67104C11.0682 51.202 14.4654 61.6306 17.8626 72.0046C16.4927 72.2776 15.2873 72.9328 14.3558 73.861C13.0955 75.1168 12.3285 76.8094 12.3285 78.7204C12.3285 80.6314 13.0955 82.3786 14.3558 83.5798C15.616 84.8356 17.3694 85.6 19.2324 85.6C21.1501 85.6 22.9035 84.8356 24.109 83.5798C25.3692 82.324 26.1363 80.6314 26.1363 78.7204C26.1363 77.5738 25.8623 76.5364 25.3692 75.6082H38.5743C38.0812 76.5364 37.8072 77.6284 37.8072 78.7204C37.8072 80.6314 38.5743 82.3786 39.8346 83.5798C41.0948 84.8356 42.8482 85.6 44.7112 85.6C46.6289 85.6 48.3823 84.8356 49.5878 83.5798C50.848 82.324 51.6151 80.6314 51.6151 78.7204C51.6151 76.8094 50.848 75.1168 49.5878 73.861C48.2727 72.5506 46.5194 71.8408 44.7112 71.8408H21.6981L20.6022 68.5102H44.7112C45.5331 68.5102 46.2454 68.0188 46.5193 67.1998L53.2041 46.7794C53.3137 46.561 53.3137 46.3426 53.3137 46.0696C53.3137 45.0322 52.437 44.1586 51.3959 44.1586H39.1223C38.0812 44.1586 37.2045 45.0322 37.2045 46.0696C37.2045 47.107 38.0812 47.9806 39.1223 47.9806H48.985L46.9029 54.2596H16.1092ZM45.6975 58.027H17.3146L19.5064 64.6882H43.5057L45.6975 58.027ZM31.506 44.1586C30.465 44.1586 29.5883 45.0322 29.5883 46.0696C29.5883 47.107 30.465 47.9806 31.506 47.9806C32.5471 47.9806 33.4238 47.107 33.4238 46.0696C33.4238 44.9776 32.5471 44.1586 31.506 44.1586ZM44.9851 75.6082C45.807 75.6628 46.5193 75.9904 47.0673 76.5364C47.6152 77.0824 47.9988 77.9014 47.9988 78.7204C47.9988 79.594 47.67 80.3584 47.0673 80.9044C46.5193 81.4504 45.6975 81.8326 44.8756 81.8326C44.0537 81.8326 43.2318 81.505 42.6838 80.9044C42.1359 80.3584 41.7523 79.5394 41.7523 78.7204C41.7523 77.8468 42.0811 77.0824 42.6838 76.5364C43.177 76.045 43.8893 75.6628 44.6564 75.6082C44.8208 75.6082 44.8756 75.6082 44.9851 75.6082ZM21.5337 76.5364C22.0816 77.0824 22.4652 77.9014 22.4652 78.7204C22.4652 79.594 22.1364 80.3584 21.5337 80.9044C20.9858 81.4504 20.1639 81.8326 19.342 81.8326C18.4653 81.8326 17.6982 81.505 17.1502 80.9044C16.6023 80.3584 16.2188 79.5394 16.2188 78.7204C16.2188 77.8468 16.5475 77.0824 17.1502 76.5364C17.6982 75.9904 18.5201 75.6082 19.342 75.6082C20.1639 75.6082 20.9858 75.9904 21.5337 76.5364Z" fill="#2C2C2C"/>
<path opacity="0.7" fill-rule="evenodd" clip-rule="evenodd" d="M45.6973 58.027H17.3145L19.5062 64.6882H43.5056L45.6973 58.027Z" fill="#EB5433"/>
<path opacity="0.7" fill-rule="evenodd" clip-rule="evenodd" d="M44.9848 75.6082C45.8067 75.6628 46.519 75.9904 47.0669 76.5364C47.6148 77.0824 47.9984 77.9014 47.9984 78.7204C47.9984 79.594 47.6696 80.3584 47.0669 80.9044C46.519 81.4504 45.6971 81.8325 44.8752 81.8325C44.0533 81.8325 43.2314 81.505 42.6834 80.9044C42.1355 80.3584 41.752 79.5394 41.752 78.7204C41.752 77.8468 42.0807 77.0824 42.6834 76.5364C43.1766 76.045 43.8889 75.6628 44.656 75.6082C44.8204 75.6082 44.8752 75.6082 44.9848 75.6082Z" fill="#3561D1"/>
<path opacity="0.7" fill-rule="evenodd" clip-rule="evenodd" d="M21.5332 76.5364C22.0811 77.0824 22.4647 77.9014 22.4647 78.7204C22.4647 79.594 22.1359 80.3584 21.5332 80.9044C20.9852 81.4504 20.1634 81.8325 19.3415 81.8325C18.4648 81.8325 17.6977 81.505 17.1497 80.9044C16.6018 80.3584 16.2183 79.5394 16.2183 78.7204C16.2183 77.8468 16.547 77.0824 17.1497 76.5364C17.6977 75.9904 18.5196 75.6082 19.3415 75.6082C20.1634 75.6082 20.9852 75.9904 21.5332 76.5364Z" fill="#3561D1"/>
<defs>
<clipPath id="clip0">
<rect width="17" height="17" fill="white" transform="matrix(-0.991168 -0.132615 -0.132615 0.991168 71.1045 23.2544)"/>
</clipPath>
</defs>
</svg>
