<svg width="11" height="22" viewBox="0 0 11 22" fill="none" xmlns="http://www.w3.org/2000/svg">
<path d="M8.42188 6.50781C8.85156 5.92188 9.125 5.21875 9.125 4.4375C9.125 2.5625 7.5625 1 5.6875 1C3.77344 1 2.25 2.5625 2.25 4.4375C2.25 5.21875 2.48438 5.92188 2.91406 6.50781C1.78125 6.89844 1 7.95312 1 9.20312V13.3047C1 14.2812 1.66406 15.1016 2.5625 15.3359V18.9297C2.5625 20.1016 3.46094 21 4.63281 21H6.74219C7.875 21 8.8125 20.1016 8.8125 18.9297V15.3359C9.67188 15.1016 10.375 14.2812 10.375 13.3047V9.20312C10.375 7.95312 9.55469 6.89844 8.42188 6.50781ZM5.6875 2.25C6.85938 2.25 7.875 3.26562 7.875 4.4375C7.875 5.64844 6.85938 6.625 5.6875 6.625C4.47656 6.625 3.5 5.64844 3.5 4.4375C3.5 3.26562 4.47656 2.25 5.6875 2.25ZM9.125 13.3047C9.125 13.7734 8.73438 14.125 8.30469 14.125H7.5625V18.9297C7.5625 19.3984 7.17188 19.75 6.74219 19.75H4.63281C4.16406 19.75 3.8125 19.3984 3.8125 18.9297V14.125H3.07031C2.60156 14.125 2.25 13.7734 2.25 13.3047V9.20312C2.25 8.30469 2.95312 7.5625 3.89062 7.5625H4.24219C5.14062 7.99219 6.15625 7.99219 7.09375 7.5625H7.48438C8.38281 7.5625 9.125 8.30469 9.125 9.20312V13.3047Z" fill="#FF4F17" stroke="white" stroke-width="0.5"/>
</svg>
