<svg width="8" height="20" viewBox="0 0 8 20" fill="none" xmlns="http://www.w3.org/2000/svg">
<path d="M3.75 0C2.34375 0 1.25 1.13281 1.25 2.5C1.25 3.90625 2.34375 5 3.75 5C5.11719 5 6.25 3.90625 6.25 2.5C6.25 1.13281 5.11719 0 3.75 0ZM5.625 5.625H5.15625C4.25781 6.05469 3.24219 6.05469 2.30469 5.625H1.875C0.820312 5.625 0 6.48438 0 7.5V12.8125C0 13.3594 0.390625 13.75 0.9375 13.75H1.5625V19.0625C1.5625 19.6094 1.95312 20 2.5 20H5C5.50781 20 5.9375 19.6094 5.9375 19.0625V13.75H6.5625C7.07031 13.75 7.5 13.3594 7.5 12.8125V7.5C7.5 6.48438 6.64062 5.625 5.625 5.625Z" fill="#FF4F17"/>
</svg>
